<?xml version="1.0" encoding="utf-8"?>
<!-- Generator: Adobe Illustrator 27.0.0, SVG Export Plug-In . SVG Version: 6.00 Build 0)  -->
<svg version="1.1" id="Layer_1" xmlns="http://www.w3.org/2000/svg" xmlns:xlink="http://www.w3.org/1999/xlink" x="0px" y="0px" fill="#a78bfa"
	 viewBox="0 0 500 500" xml:space="preserve" width="48" height="48">
<g>
	<path d="M128.37,405.93l-33.95-41.3c15.05-11.55,30.8-29.05,37.1-64.05l31.85-180.6h65.8l-33.25,190.05
		C186.83,360.43,151.47,392.63,128.37,405.93z"/>
	<path d="M309.33,343.28h-88.2l39.2-223.3h79.45c33.95,0,57.75,19.95,57.75,49c0,3.5-0.35,7-1.05,10.5
		c-2.1,11.55-10.85,28.35-23.45,35.7c15.4,5.95,28,23.45,28,46.55c0,3.5-0.35,7.35-1.05,11.2
		C392.63,314.58,355.53,343.28,309.33,343.28z M337.68,270.12c0-12.6-10.85-18.9-22.05-18.9h-20.3l-7.7,46.2h19.95
		c12.6,0,26.6-7,29.75-22.75C337.68,273.28,337.68,271.52,337.68,270.12z M337.68,181.92c0-10.15-7.35-14.35-16.1-14.35h-11.55
		l-6.65,37.45h11.55c9.45,0,19.95-5.25,22.4-18.55C337.68,184.72,337.68,183.32,337.68,181.92z"/>
</g>
</svg>
